<svg width="97" height="97" viewBox="0 0 97 97" fill="none" xmlns="http://www.w3.org/2000/svg">
<path d="M50.1099 96.808C50.1099 70.9638 71.1558 50.013 97 50.013V50.013V96.808H50.1099V96.808Z" fill="#5260DD"/>
<path d="M46.8901 96.808C46.8901 70.9638 25.8442 50.013 -1.28746e-05 50.013V50.013V96.808H46.8901V96.808Z" fill="#5260DD"/>
<path d="M50.1099 1.05697e-05C50.1099 25.8442 71.1559 46.795 97 46.795V46.795V46.795C97 20.9508 75.9541 1.05697e-05 50.1099 1.05697e-05V1.05697e-05V1.05697e-05Z" fill="#5260DD"/>
<path d="M46.8901 1.05697e-05C46.8901 25.8442 25.8442 46.795 -1.18677e-05 46.795V46.795V46.795C-1.18677e-05 20.9508 21.0459 1.05697e-05 46.8901 1.05697e-05V1.05697e-05V1.05697e-05Z" fill="#5260DD"/>
</svg>
