<svg width="239" height="217" viewBox="0 0 239 217" fill="none" xmlns="http://www.w3.org/2000/svg">
<g filter="url(#filter0_d_3_3839)">
<path d="M21.7297 142.706C21.0215 138.741 23.3651 134.865 27.2056 133.651C41.7678 129.048 57.1637 127.701 72.304 129.706C76.297 130.234 79.2779 133.644 79.269 137.672L79.2147 162.238C79.1872 174.661 69.683 185.01 57.3065 186.093L51.7669 186.578C39.3904 187.661 28.2334 179.119 26.049 166.889L21.7297 142.706Z" fill="url(#paint0_linear_3_3839)"/>
<path d="M21.7297 142.706C21.0215 138.741 23.3651 134.865 27.2056 133.651C41.7678 129.048 57.1637 127.701 72.304 129.706C76.297 130.234 79.2779 133.644 79.269 137.672L79.2147 162.238C79.1872 174.661 69.683 185.01 57.3065 186.093L51.7669 186.578C39.3904 187.661 28.2334 179.119 26.049 166.889L21.7297 142.706Z" fill="url(#paint1_linear_3_3839)" fill-opacity="0.07"/>
<path d="M23.6985 142.354C23.167 139.378 24.926 136.47 27.8085 135.558C42.0912 131.043 57.1917 129.722 72.0415 131.688C75.0384 132.085 77.2757 134.644 77.269 137.667L77.2147 162.233C77.1895 173.622 68.4773 183.108 57.1322 184.101L51.5926 184.585C40.2475 185.578 30.0203 177.748 28.0179 166.537L23.6985 142.354Z" stroke="white" stroke-width="4"/>
</g>
<g filter="url(#filter1_d_3_3839)">
<path d="M193.405 106.228C192.035 110.016 188.068 112.201 184.135 111.332C169.222 108.037 155.216 101.506 143.106 92.1996C139.912 89.7451 139.036 85.3022 141.057 81.8184L153.387 60.5709C159.623 49.8253 173.028 45.6149 184.288 50.8654L189.328 53.2155C200.588 58.466 205.979 71.4416 201.756 83.1255L193.405 106.228Z" fill="url(#paint2_linear_3_3839)"/>
<path d="M193.405 106.228C192.035 110.016 188.068 112.201 184.135 111.332C169.222 108.037 155.216 101.506 143.106 92.1996C139.912 89.7451 139.036 85.3022 141.057 81.8184L153.387 60.5709C159.623 49.8253 173.028 45.6149 184.288 50.8654L189.328 53.2155C200.588 58.466 205.979 71.4416 201.756 83.1255L193.405 106.228Z" fill="url(#paint3_linear_3_3839)" fill-opacity="0.07"/>
<path d="M191.524 105.549C190.496 108.392 187.519 110.031 184.567 109.379C169.94 106.148 156.202 99.7416 144.325 90.6138C141.928 88.7716 141.27 85.437 142.787 82.8223L155.117 61.5747C160.833 51.7246 173.121 47.8651 183.443 52.678L188.483 55.0281C198.804 59.8411 203.746 71.7354 199.875 82.4456L191.524 105.549Z" stroke="white" stroke-width="4"/>
</g>
<g filter="url(#filter2_d_3_3839)">
<path d="M114.262 139.281C115.631 135.493 119.598 133.309 123.531 134.178C138.444 137.472 152.451 144.004 164.561 153.31C167.754 155.764 168.631 160.207 166.609 163.691L154.279 184.939C148.044 195.684 134.638 199.895 123.379 194.644L118.339 192.294C107.079 187.044 101.688 174.068 105.911 162.384L114.262 139.281Z" fill="url(#paint4_linear_3_3839)"/>
<path d="M114.262 139.281C115.631 135.493 119.598 133.309 123.531 134.178C138.444 137.472 152.451 144.004 164.561 153.31C167.754 155.764 168.631 160.207 166.609 163.691L154.279 184.939C148.044 195.684 134.638 199.895 123.379 194.644L118.339 192.294C107.079 187.044 101.688 174.068 105.911 162.384L114.262 139.281Z" fill="url(#paint5_linear_3_3839)" fill-opacity="0.07"/>
<path d="M116.143 139.961C117.171 137.118 120.148 135.479 123.1 136.131C137.727 139.362 151.465 145.768 163.342 154.896C165.739 156.738 166.397 160.073 164.88 162.687L152.55 183.935C146.834 193.785 134.545 197.644 124.224 192.831L119.184 190.481C108.863 185.668 103.92 173.774 107.792 163.064L116.143 139.961Z" stroke="white" stroke-width="4"/>
</g>
<g filter="url(#filter3_d_3_3839)">
<path d="M123.619 73.6869C122.25 77.4749 118.283 79.659 114.35 78.7902C99.4366 75.4958 85.4299 68.9643 73.3204 59.658C70.1267 57.2035 69.2498 52.7606 71.2715 49.2768L83.6015 28.0293C89.8371 17.2837 103.243 13.0733 114.502 18.3238L119.542 20.6739C130.802 25.9244 136.193 38.9 131.97 50.5839L123.619 73.6869Z" fill="url(#paint6_linear_3_3839)"/>
<path d="M123.619 73.6869C122.25 77.4749 118.283 79.659 114.35 78.7902C99.4366 75.4958 85.4299 68.9643 73.3204 59.658C70.1267 57.2035 69.2498 52.7606 71.2715 49.2768L83.6015 28.0293C89.8371 17.2837 103.243 13.0733 114.502 18.3238L119.542 20.6739C130.802 25.9244 136.193 38.9 131.97 50.5839L123.619 73.6869Z" fill="url(#paint7_linear_3_3839)" fill-opacity="0.07"/>
<path d="M121.738 73.007C120.71 75.8501 117.733 77.4893 114.781 76.8372C100.154 73.6061 86.4162 67.2 74.5391 58.0722C72.1421 56.23 71.484 52.8954 73.0013 50.2807L85.3313 29.0331C91.0473 19.183 103.336 15.3235 113.657 20.1364L118.697 22.4865C129.018 27.2995 133.96 39.1938 130.089 49.904L121.738 73.007Z" stroke="white" stroke-width="4"/>
</g>
<g filter="url(#filter4_d_3_3839)">
<rect x="16" y="113.099" width="95" height="180" rx="3" transform="rotate(-65 16 113.099)" fill="white"/>
</g>
<defs>
<filter id="filter0_d_3_3839" x="5.60388" y="112.804" width="93.6652" height="93.8664" filterUnits="userSpaceOnUse" color-interpolation-filters="sRGB">
<feFlood flood-opacity="0" result="BackgroundImageFix"/>
<feColorMatrix in="SourceAlpha" type="matrix" values="0 0 0 0 0 0 0 0 0 0 0 0 0 0 0 0 0 0 127 0" result="hardAlpha"/>
<feOffset dx="2" dy="2"/>
<feGaussianBlur stdDeviation="9"/>
<feColorMatrix type="matrix" values="0 0 0 0 0 0 0 0 0 0 0 0 0 0 0 0 0 0 0.1 0"/>
<feBlend mode="normal" in2="BackgroundImageFix" result="effect1_dropShadow_3_3839"/>
<feBlend mode="normal" in="SourceGraphic" in2="effect1_dropShadow_3_3839" result="shape"/>
</filter>
<filter id="filter1_d_3_3839" x="123.974" y="32.6131" width="99.2159" height="98.9085" filterUnits="userSpaceOnUse" color-interpolation-filters="sRGB">
<feFlood flood-opacity="0" result="BackgroundImageFix"/>
<feColorMatrix in="SourceAlpha" type="matrix" values="0 0 0 0 0 0 0 0 0 0 0 0 0 0 0 0 0 0 127 0" result="hardAlpha"/>
<feOffset dx="2" dy="2"/>
<feGaussianBlur stdDeviation="9"/>
<feColorMatrix type="matrix" values="0 0 0 0 0 0 0 0 0 0 0 0 0 0 0 0 0 0 0.1 0"/>
<feBlend mode="normal" in2="BackgroundImageFix" result="effect1_dropShadow_3_3839"/>
<feBlend mode="normal" in="SourceGraphic" in2="effect1_dropShadow_3_3839" result="shape"/>
</filter>
<filter id="filter2_d_3_3839" x="88.4771" y="117.988" width="99.2159" height="98.9085" filterUnits="userSpaceOnUse" color-interpolation-filters="sRGB">
<feFlood flood-opacity="0" result="BackgroundImageFix"/>
<feColorMatrix in="SourceAlpha" type="matrix" values="0 0 0 0 0 0 0 0 0 0 0 0 0 0 0 0 0 0 127 0" result="hardAlpha"/>
<feOffset dx="2" dy="2"/>
<feGaussianBlur stdDeviation="9"/>
<feColorMatrix type="matrix" values="0 0 0 0 0 0 0 0 0 0 0 0 0 0 0 0 0 0 0.1 0"/>
<feBlend mode="normal" in2="BackgroundImageFix" result="effect1_dropShadow_3_3839"/>
<feBlend mode="normal" in="SourceGraphic" in2="effect1_dropShadow_3_3839" result="shape"/>
</filter>
<filter id="filter3_d_3_3839" x="54.1879" y="0.0715027" width="99.2159" height="98.9085" filterUnits="userSpaceOnUse" color-interpolation-filters="sRGB">
<feFlood flood-opacity="0" result="BackgroundImageFix"/>
<feColorMatrix in="SourceAlpha" type="matrix" values="0 0 0 0 0 0 0 0 0 0 0 0 0 0 0 0 0 0 127 0" result="hardAlpha"/>
<feOffset dx="2" dy="2"/>
<feGaussianBlur stdDeviation="9"/>
<feColorMatrix type="matrix" values="0 0 0 0 0 0 0 0 0 0 0 0 0 0 0 0 0 0 0.1 0"/>
<feBlend mode="normal" in2="BackgroundImageFix" result="effect1_dropShadow_3_3839"/>
<feBlend mode="normal" in="SourceGraphic" in2="effect1_dropShadow_3_3839" result="shape"/>
</filter>
<filter id="filter4_d_3_3839" x="0" y="11" width="239.284" height="198.171" filterUnits="userSpaceOnUse" color-interpolation-filters="sRGB">
<feFlood flood-opacity="0" result="BackgroundImageFix"/>
<feColorMatrix in="SourceAlpha" type="matrix" values="0 0 0 0 0 0 0 0 0 0 0 0 0 0 0 0 0 0 127 0" result="hardAlpha"/>
<feOffset dx="2" dy="2"/>
<feGaussianBlur stdDeviation="9"/>
<feColorMatrix type="matrix" values="0 0 0 0 0 0 0 0 0 0 0 0 0 0 0 0 0 0 0.1 0"/>
<feBlend mode="normal" in2="BackgroundImageFix" result="effect1_dropShadow_3_3839"/>
<feBlend mode="normal" in="SourceGraphic" in2="effect1_dropShadow_3_3839" result="shape"/>
</filter>
<linearGradient id="paint0_linear_3_3839" x1="54.5367" y1="186.335" x2="50.2689" y2="137.555" gradientUnits="userSpaceOnUse">
<stop stop-color="#EBEBEB"/>
<stop offset="1" stop-color="white"/>
</linearGradient>
<linearGradient id="paint1_linear_3_3839" x1="32.22" y1="172.202" x2="42.3815" y2="139.191" gradientUnits="userSpaceOnUse">
<stop/>
<stop offset="1" stop-opacity="0"/>
</linearGradient>
<linearGradient id="paint2_linear_3_3839" x1="186.808" y1="52.0405" x2="166.113" y2="96.4198" gradientUnits="userSpaceOnUse">
<stop stop-color="#EBEBEB"/>
<stop offset="1" stop-color="white"/>
</linearGradient>
<linearGradient id="paint3_linear_3_3839" x1="199.068" y1="75.4387" x2="173.762" y2="98.9466" gradientUnits="userSpaceOnUse">
<stop/>
<stop offset="1" stop-opacity="0"/>
</linearGradient>
<linearGradient id="paint4_linear_3_3839" x1="120.859" y1="193.469" x2="141.553" y2="149.09" gradientUnits="userSpaceOnUse">
<stop stop-color="#EBEBEB"/>
<stop offset="1" stop-color="white"/>
</linearGradient>
<linearGradient id="paint5_linear_3_3839" x1="108.599" y1="170.071" x2="133.904" y2="146.563" gradientUnits="userSpaceOnUse">
<stop/>
<stop offset="1" stop-opacity="0"/>
</linearGradient>
<linearGradient id="paint6_linear_3_3839" x1="117.022" y1="19.4989" x2="96.3278" y2="63.8782" gradientUnits="userSpaceOnUse">
<stop stop-color="#EBEBEB"/>
<stop offset="1" stop-color="white"/>
</linearGradient>
<linearGradient id="paint7_linear_3_3839" x1="129.282" y1="42.8971" x2="103.977" y2="66.4049" gradientUnits="userSpaceOnUse">
<stop/>
<stop offset="1" stop-opacity="0"/>
</linearGradient>
</defs>
</svg>
