<svg width="230" height="179" viewBox="0 0 230 179" fill="none" xmlns="http://www.w3.org/2000/svg">
<g filter="url(#filter0_d_235_460)">
<path d="M96.8193 117.828C95.6332 113.979 97.4871 109.847 101.151 108.174C115.044 101.83 130.161 98.6169 145.432 98.7617C149.46 98.7998 152.834 101.82 153.316 105.819L156.256 130.209C157.743 142.543 149.571 153.973 137.419 156.556L131.979 157.713C119.827 160.296 107.712 153.178 104.054 141.305L96.8193 117.828Z" fill="url(#paint0_linear_235_460)"/>
<path d="M96.8193 117.828C95.6332 113.979 97.4871 109.847 101.151 108.174C115.044 101.83 130.161 98.6169 145.432 98.7617C149.46 98.7998 152.834 101.82 153.316 105.819L156.256 130.209C157.743 142.543 149.571 153.973 137.419 156.556L131.979 157.713C119.827 160.296 107.712 153.178 104.054 141.305L96.8193 117.828Z" fill="url(#paint1_linear_235_460)" fill-opacity="0.07"/>
<path d="M98.7307 117.239C97.8404 114.35 99.2318 111.249 101.982 109.993C115.608 103.771 130.435 100.62 145.413 100.762C148.436 100.79 150.969 103.057 151.331 106.059L154.271 130.448C155.633 141.755 148.142 152.232 137.003 154.6L131.563 155.756C120.424 158.124 109.319 151.599 105.965 140.716L98.7307 117.239Z" stroke="white" stroke-width="4"/>
</g>
<g filter="url(#filter1_d_235_460)">
<rect x="193.265" y="16" width="95" height="180" rx="3" transform="rotate(80 193.265 16)" fill="white"/>
</g>
<defs>
<filter id="filter0_d_235_460" x="80.4625" y="82.757" width="95.968" height="95.4838" filterUnits="userSpaceOnUse" color-interpolation-filters="sRGB">
<feFlood flood-opacity="0" result="BackgroundImageFix"/>
<feColorMatrix in="SourceAlpha" type="matrix" values="0 0 0 0 0 0 0 0 0 0 0 0 0 0 0 0 0 0 127 0" result="hardAlpha"/>
<feOffset dx="2" dy="2"/>
<feGaussianBlur stdDeviation="9"/>
<feColorMatrix type="matrix" values="0 0 0 0 0 0 0 0 0 0 0 0 0 0 0 0 0 0 0.1 0"/>
<feBlend mode="normal" in2="BackgroundImageFix" result="effect1_dropShadow_235_460"/>
<feBlend mode="normal" in="SourceGraphic" in2="effect1_dropShadow_235_460" result="shape"/>
</filter>
<filter id="filter1_d_235_460" x="-5.34058e-05" y="0" width="229.762" height="160.813" filterUnits="userSpaceOnUse" color-interpolation-filters="sRGB">
<feFlood flood-opacity="0" result="BackgroundImageFix"/>
<feColorMatrix in="SourceAlpha" type="matrix" values="0 0 0 0 0 0 0 0 0 0 0 0 0 0 0 0 0 0 127 0" result="hardAlpha"/>
<feOffset dx="2" dy="2"/>
<feGaussianBlur stdDeviation="9"/>
<feColorMatrix type="matrix" values="0 0 0 0 0 0 0 0 0 0 0 0 0 0 0 0 0 0 0.1 0"/>
<feBlend mode="normal" in2="BackgroundImageFix" result="effect1_dropShadow_235_460"/>
<feBlend mode="normal" in="SourceGraphic" in2="effect1_dropShadow_235_460" result="shape"/>
</filter>
<linearGradient id="paint0_linear_235_460" x1="134.699" y1="157.135" x2="124.518" y2="109.237" gradientUnits="userSpaceOnUse">
<stop stop-color="#EBEBEB"/>
<stop offset="1" stop-color="white"/>
</linearGradient>
<linearGradient id="paint1_linear_235_460" x1="110.826" y1="145.826" x2="116.889" y2="111.823" gradientUnits="userSpaceOnUse">
<stop/>
<stop offset="1" stop-opacity="0"/>
</linearGradient>
</defs>
</svg>
